<svg xmlns="http://www.w3.org/2000/svg" xmlns:xlink="http://www.w3.org/1999/xlink" width="1200" height="651.3"><rect width="1200" height="651.3" rx="0" ry="0" class="a"/><svg height="651.3" viewBox="0 0 120 65.13" width="1200" xmlns="http://www.w3.org/2000/svg" xmlns:xlink="http://www.w3.org/1999/xlink"><style>@keyframes h{0%{transform:translateX(0)}1.3%{transform:translateX(-120px)}8.2%{transform:translateX(-240px)}10.3%{transform:translateX(-360px)}14.6%{transform:translateX(-480px)}20.2%{transform:translateX(-600px)}28%{transform:translateX(-720px)}30.3%{transform:translateX(-840px)}31.2%{transform:translateX(-960px)}32.8%{transform:translateX(-1080px)}34.9%{transform:translateX(-1200px)}36%{transform:translateX(-1320px)}37.6%{transform:translateX(-1440px)}42%{transform:translateX(-1680px)}45.6%{transform:translateX(-1800px)}49%{transform:translateX(-1920px)}51.8%{transform:translateX(-2040px)}57.1%{transform:translateX(-2160px)}59.9%{transform:translateX(-2280px)}61.6%{transform:translateX(-2400px)}62.7%{transform:translateX(-2520px)}63.6%{transform:translateX(-2640px)}64.5%{transform:translateX(-2760px)}65.6%{transform:translateX(-2880px)}67.6%{transform:translateX(-3000px)}69.7%{transform:translateX(-3120px)}70.7%{transform:translateX(-3240px)}71.8%{transform:translateX(-3360px)}73%{transform:translateX(-3480px)}74%{transform:translateX(-3600px)}76%{transform:translateX(-3720px)}78.8%{transform:translateX(-3840px)}79.5%{transform:translateX(-3960px)}82.7%{transform:translateX(-4080px)}82.9%{transform:translateX(-4320px)}90.6%{transform:translateX(-4440px)}92.7%{transform:translateX(-4560px)}94.3%{transform:translateX(-4680px)}95.7%{transform:translateX(-4800px)}to{transform:translateX(-5040px)}}.a{fill:#282d35}.c,.d,.e{white-space:pre}.c{fill:#a8cc8c;font-weight:700}.d,.e{fill:#b9c0cb}.e{fill:#71bef2;font-weight:700}</style><g font-family="Monaco,Consolas,Menlo,'Bitstream Vera Sans Mono','Powerline Symbols',monospace" font-size="1.67"><defs><symbol id="1"><text y="1.67" class="c">xbx@node</text><text x="8.016" y="1.67" class="d">:</text><text x="9.018" y="1.67" class="e">~</text><text x="10.02" y="1.67" class="d">$</text><text x="12.024" y="1.67" class="d">cd</text></symbol><symbol id="2"><text y="1.67" class="c">xbx@node</text><text x="8.016" y="1.67" class="d">:</text><text x="9.018" y="1.67" class="e">~</text><text x="10.02" y="1.67" class="d">$</text><text x="12.024" y="1.67" class="d">cd</text><text x="15.03" y="1.67" class="d">~/github</text></symbol><symbol id="3"><text y="1.67" class="c">xbx@node</text><text x="8.016" y="1.67" class="d">:</text><text x="9.018" y="1.67" class="e">~/github</text><text x="17.034" y="1.67" class="d">$</text></symbol><symbol id="4"><text y="1.67" class="c">xbx@node</text><text x="8.016" y="1.67" class="d">:</text><text x="9.018" y="1.67" class="e">~/github</text><text x="17.034" y="1.67" class="d">$</text><text x="19.038" y="1.67" class="d">cat</text></symbol><symbol id="5"><text y="1.67" class="c">xbx@node</text><text x="8.016" y="1.67" class="d">:</text><text x="9.018" y="1.67" class="e">~/github</text><text x="17.034" y="1.67" class="d">$</text><text x="19.038" y="1.67" class="d">cat</text><text x="23.046" y="1.67" class="d">social-media.ds</text></symbol><symbol id="6"><text y="1.67" class="d">var</text><text x="4.008" y="1.67" class="d">socialmedia.discord</text><text x="24.048" y="1.67" class="d">dsc.bio/xbx</text></symbol><symbol id="7"><text y="1.67" class="d">var</text><text x="4.008" y="1.67" class="d">socialmedia.instagram</text><text x="26.052" y="1.67" class="d">instagram.com/therealxbx</text></symbol><symbol id="8"><text y="1.67" class="d">var</text><text x="4.008" y="1.67" class="d">socialmedia.twitter</text><text x="24.048" y="1.67" class="d">twitter.com/@fn_xbx</text></symbol><symbol id="9"><text y="1.67" class="c">xbx@node</text><text x="8.016" y="1.67" class="d">:</text><text x="9.018" y="1.67" class="e">~/github</text><text x="17.034" y="1.67" class="d">$</text><text x="19.038" y="1.67" class="d">exit</text></symbol><symbol id="a"><path fill="transparent" d="M0 0h120v30H0z"/></symbol><symbol id="b"><path fill="#6f7683" d="M0 0h1.102v2.171H0z"/></symbol></defs><path class="a" d="M0 0h120v65.13H0z"/><g style="animation-duration:10.740677s;animation-iteration-count:infinite;animation-name:h;animation-timing-function:steps(1,end)"><svg width="5160"><svg><use xlink:href="#a"/><use xlink:href="#b" x="-.004"/></svg><svg x="120"><use xlink:href="#a"/><use xlink:href="#b" x="11.996"/><text y="1.67" class="c">xbx@node</text><text x="8.016" y="1.67" class="d">:</text><text x="9.018" y="1.67" class="e">~</text><text x="10.02" y="1.67" class="d">$</text></svg><svg x="240"><use xlink:href="#a"/><use xlink:href="#b" x="12.996"/><text y="1.67" class="c">xbx@node</text><text x="8.016" y="1.67" class="d">:</text><text x="9.018" y="1.67" class="e">~</text><text x="10.02" y="1.67" class="d">$</text><text x="12.024" y="1.67" class="d">c</text></svg><svg x="360"><use xlink:href="#a"/><use xlink:href="#b" x="13.996"/><use xlink:href="#1"/></svg><svg x="480"><use xlink:href="#a"/><use xlink:href="#b" x="14.996"/><use xlink:href="#1"/></svg><svg x="600"><use xlink:href="#a"/><use xlink:href="#b" x="15.996"/><text y="1.67" class="c">xbx@node</text><text x="8.016" y="1.67" class="d">:</text><text x="9.018" y="1.67" class="e">~</text><text x="10.02" y="1.67" class="d">$</text><text x="12.024" y="1.67" class="d">cd</text><text x="15.03" y="1.67" class="d">~</text></svg><svg x="720"><use xlink:href="#a"/><use xlink:href="#b" x="16.996"/><text y="1.67" class="c">xbx@node</text><text x="8.016" y="1.67" class="d">:</text><text x="9.018" y="1.67" class="e">~</text><text x="10.02" y="1.67" class="d">$</text><text x="12.024" y="1.67" class="d">cd</text><text x="15.03" y="1.67" class="d">~/</text></svg><svg x="840"><use xlink:href="#a"/><use xlink:href="#b" x="17.996"/><text y="1.67" class="c">xbx@node</text><text x="8.016" y="1.67" class="d">:</text><text x="9.018" y="1.67" class="e">~</text><text x="10.02" y="1.67" class="d">$</text><text x="12.024" y="1.67" class="d">cd</text><text x="15.03" y="1.67" class="d">~/g</text></svg><svg x="960"><use xlink:href="#a"/><use xlink:href="#b" x="18.996"/><text y="1.67" class="c">xbx@node</text><text x="8.016" y="1.67" class="d">:</text><text x="9.018" y="1.67" class="e">~</text><text x="10.02" y="1.67" class="d">$</text><text x="12.024" y="1.67" class="d">cd</text><text x="15.03" y="1.67" class="d">~/gi</text></svg><svg x="1080"><use xlink:href="#a"/><use xlink:href="#b" x="19.996"/><text y="1.67" class="c">xbx@node</text><text x="8.016" y="1.67" class="d">:</text><text x="9.018" y="1.67" class="e">~</text><text x="10.02" y="1.67" class="d">$</text><text x="12.024" y="1.67" class="d">cd</text><text x="15.03" y="1.67" class="d">~/git</text></svg><svg x="1200"><use xlink:href="#a"/><use xlink:href="#b" x="20.996"/><text y="1.67" class="c">xbx@node</text><text x="8.016" y="1.67" class="d">:</text><text x="9.018" y="1.67" class="e">~</text><text x="10.02" y="1.67" class="d">$</text><text x="12.024" y="1.67" class="d">cd</text><text x="15.03" y="1.67" class="d">~/gith</text></svg><svg x="1320"><use xlink:href="#a"/><use xlink:href="#b" x="21.996"/><text y="1.67" class="c">xbx@node</text><text x="8.016" y="1.67" class="d">:</text><text x="9.018" y="1.67" class="e">~</text><text x="10.02" y="1.67" class="d">$</text><text x="12.024" y="1.67" class="d">cd</text><text x="15.03" y="1.67" class="d">~/githu</text></svg><svg x="1440"><use xlink:href="#a"/><use xlink:href="#b" x="22.996"/><use xlink:href="#2"/></svg><svg x="1560"><use xlink:href="#a"/><use xlink:href="#b" x="-.004" y="2.146"/><use xlink:href="#2"/></svg><svg x="1680"><use xlink:href="#a"/><use xlink:href="#b" x="18.996" y="2.146"/><use xlink:href="#2"/><use xlink:href="#3" y="2.171"/></svg><svg x="1800"><use xlink:href="#a"/><use xlink:href="#b" x="19.996" y="2.146"/><use xlink:href="#2"/><text y="3.841" class="c">xbx@node</text><text x="8.016" y="3.841" class="d">:</text><text x="9.018" y="3.841" class="e">~/github</text><text x="17.034" y="3.841" class="d">$</text><text x="19.038" y="3.841" class="d">c</text></svg><svg x="1920"><use xlink:href="#a"/><use xlink:href="#b" x="20.996" y="2.146"/><use xlink:href="#2"/><text y="3.841" class="c">xbx@node</text><text x="8.016" y="3.841" class="d">:</text><text x="9.018" y="3.841" class="e">~/github</text><text x="17.034" y="3.841" class="d">$</text><text x="19.038" y="3.841" class="d">ca</text></svg><svg x="2040"><use xlink:href="#a"/><use xlink:href="#b" x="21.996" y="2.146"/><use xlink:href="#2"/><use xlink:href="#4" y="2.171"/></svg><svg x="2160"><use xlink:href="#a"/><use xlink:href="#b" x="22.996" y="2.146"/><use xlink:href="#2"/><use xlink:href="#4" y="2.171"/></svg><svg x="2280"><use xlink:href="#a"/><use xlink:href="#b" x="23.996" y="2.146"/><use xlink:href="#2"/><text y="3.841" class="c">xbx@node</text><text x="8.016" y="3.841" class="d">:</text><text x="9.018" y="3.841" class="e">~/github</text><text x="17.034" y="3.841" class="d">$</text><text x="19.038" y="3.841" class="d">cat</text><text x="23.046" y="3.841" class="d">s</text></svg><svg x="2400"><use xlink:href="#a"/><use xlink:href="#b" x="24.996" y="2.146"/><use xlink:href="#2"/><text y="3.841" class="c">xbx@node</text><text x="8.016" y="3.841" class="d">:</text><text x="9.018" y="3.841" class="e">~/github</text><text x="17.034" y="3.841" class="d">$</text><text x="19.038" y="3.841" class="d">cat</text><text x="23.046" y="3.841" class="d">so</text></svg><svg x="2520"><use xlink:href="#a"/><use xlink:href="#b" x="25.996" y="2.146"/><use xlink:href="#2"/><text y="3.841" class="c">xbx@node</text><text x="8.016" y="3.841" class="d">:</text><text x="9.018" y="3.841" class="e">~/github</text><text x="17.034" y="3.841" class="d">$</text><text x="19.038" y="3.841" class="d">cat</text><text x="23.046" y="3.841" class="d">soc</text></svg><svg x="2640"><use xlink:href="#a"/><use xlink:href="#b" x="26.996" y="2.146"/><use xlink:href="#2"/><text y="3.841" class="c">xbx@node</text><text x="8.016" y="3.841" class="d">:</text><text x="9.018" y="3.841" class="e">~/github</text><text x="17.034" y="3.841" class="d">$</text><text x="19.038" y="3.841" class="d">cat</text><text x="23.046" y="3.841" class="d">soci</text></svg><svg x="2760"><use xlink:href="#a"/><use xlink:href="#b" x="27.996" y="2.146"/><use xlink:href="#2"/><text y="3.841" class="c">xbx@node</text><text x="8.016" y="3.841" class="d">:</text><text x="9.018" y="3.841" class="e">~/github</text><text x="17.034" y="3.841" class="d">$</text><text x="19.038" y="3.841" class="d">cat</text><text x="23.046" y="3.841" class="d">socia</text></svg><svg x="2880"><use xlink:href="#a"/><use xlink:href="#b" x="28.996" y="2.146"/><use xlink:href="#2"/><text y="3.841" class="c">xbx@node</text><text x="8.016" y="3.841" class="d">:</text><text x="9.018" y="3.841" class="e">~/github</text><text x="17.034" y="3.841" class="d">$</text><text x="19.038" y="3.841" class="d">cat</text><text x="23.046" y="3.841" class="d">social</text></svg><svg x="3000"><use xlink:href="#a"/><use xlink:href="#b" x="29.996" y="2.146"/><use xlink:href="#2"/><text y="3.841" class="c">xbx@node</text><text x="8.016" y="3.841" class="d">:</text><text x="9.018" y="3.841" class="e">~/github</text><text x="17.034" y="3.841" class="d">$</text><text x="19.038" y="3.841" class="d">cat</text><text x="23.046" y="3.841" class="d">social-</text></svg><svg x="3120"><use xlink:href="#a"/><use xlink:href="#b" x="30.996" y="2.146"/><use xlink:href="#2"/><text y="3.841" class="c">xbx@node</text><text x="8.016" y="3.841" class="d">:</text><text x="9.018" y="3.841" class="e">~/github</text><text x="17.034" y="3.841" class="d">$</text><text x="19.038" y="3.841" class="d">cat</text><text x="23.046" y="3.841" class="d">social-m</text></svg><svg x="3240"><use xlink:href="#a"/><use xlink:href="#b" x="31.996" y="2.146"/><use xlink:href="#2"/><text y="3.841" class="c">xbx@node</text><text x="8.016" y="3.841" class="d">:</text><text x="9.018" y="3.841" class="e">~/github</text><text x="17.034" y="3.841" class="d">$</text><text x="19.038" y="3.841" class="d">cat</text><text x="23.046" y="3.841" class="d">social-me</text></svg><svg x="3360"><use xlink:href="#a"/><use xlink:href="#b" x="32.996" y="2.146"/><use xlink:href="#2"/><text y="3.841" class="c">xbx@node</text><text x="8.016" y="3.841" class="d">:</text><text x="9.018" y="3.841" class="e">~/github</text><text x="17.034" y="3.841" class="d">$</text><text x="19.038" y="3.841" class="d">cat</text><text x="23.046" y="3.841" class="d">social-med</text></svg><svg x="3480"><use xlink:href="#a"/><use xlink:href="#b" x="33.996" y="2.146"/><use xlink:href="#2"/><text y="3.841" class="c">xbx@node</text><text x="8.016" y="3.841" class="d">:</text><text x="9.018" y="3.841" class="e">~/github</text><text x="17.034" y="3.841" class="d">$</text><text x="19.038" y="3.841" class="d">cat</text><text x="23.046" y="3.841" class="d">social-medi</text></svg><svg x="3600"><use xlink:href="#a"/><use xlink:href="#b" x="34.996" y="2.146"/><use xlink:href="#2"/><text y="3.841" class="c">xbx@node</text><text x="8.016" y="3.841" class="d">:</text><text x="9.018" y="3.841" class="e">~/github</text><text x="17.034" y="3.841" class="d">$</text><text x="19.038" y="3.841" class="d">cat</text><text x="23.046" y="3.841" class="d">social-media</text></svg><svg x="3720"><use xlink:href="#a"/><use xlink:href="#b" x="35.996" y="2.146"/><use xlink:href="#2"/><text y="3.841" class="c">xbx@node</text><text x="8.016" y="3.841" class="d">:</text><text x="9.018" y="3.841" class="e">~/github</text><text x="17.034" y="3.841" class="d">$</text><text x="19.038" y="3.841" class="d">cat</text><text x="23.046" y="3.841" class="d">social-media.</text></svg><svg x="3840"><use xlink:href="#a"/><use xlink:href="#b" x="36.996" y="2.146"/><use xlink:href="#2"/><text y="3.841" class="c">xbx@node</text><text x="8.016" y="3.841" class="d">:</text><text x="9.018" y="3.841" class="e">~/github</text><text x="17.034" y="3.841" class="d">$</text><text x="19.038" y="3.841" class="d">cat</text><text x="23.046" y="3.841" class="d">social-media.d</text></svg><svg x="3960"><use xlink:href="#a"/><use xlink:href="#b" x="37.996" y="2.146"/><use xlink:href="#2"/><use xlink:href="#5" y="2.171"/></svg><svg x="4080"><use xlink:href="#a"/><use xlink:href="#b" x="-.004" y="4.317"/><use xlink:href="#2"/><use xlink:href="#5" y="2.171"/></svg><svg x="4200"><use xlink:href="#a"/><use xlink:href="#b" x="-.004" y="10.83"/><use xlink:href="#2"/><use xlink:href="#5" y="2.171"/><use xlink:href="#6" y="4.342"/><use xlink:href="#7" y="6.513"/><use xlink:href="#8" y="8.684"/></svg><svg x="4320"><use xlink:href="#a"/><use xlink:href="#b" x="18.996" y="10.83"/><use xlink:href="#2"/><use xlink:href="#5" y="2.171"/><use xlink:href="#6" y="4.342"/><use xlink:href="#7" y="6.513"/><use xlink:href="#8" y="8.684"/><use xlink:href="#3" y="10.855"/></svg><svg x="4440"><use xlink:href="#a"/><use xlink:href="#b" x="19.996" y="10.83"/><use xlink:href="#2"/><use xlink:href="#5" y="2.171"/><use xlink:href="#6" y="4.342"/><use xlink:href="#7" y="6.513"/><use xlink:href="#8" y="8.684"/><text y="12.525" class="c">xbx@node</text><text x="8.016" y="12.525" class="d">:</text><text x="9.018" y="12.525" class="e">~/github</text><text x="17.034" y="12.525" class="d">$</text><text x="19.038" y="12.525" class="d">e</text></svg><svg x="4560"><use xlink:href="#a"/><use xlink:href="#b" x="20.996" y="10.83"/><use xlink:href="#2"/><use xlink:href="#5" y="2.171"/><use xlink:href="#6" y="4.342"/><use xlink:href="#7" y="6.513"/><use xlink:href="#8" y="8.684"/><text y="12.525" class="c">xbx@node</text><text x="8.016" y="12.525" class="d">:</text><text x="9.018" y="12.525" class="e">~/github</text><text x="17.034" y="12.525" class="d">$</text><text x="19.038" y="12.525" class="d">ex</text></svg><svg x="4680"><use xlink:href="#a"/><use xlink:href="#b" x="21.996" y="10.83"/><use xlink:href="#2"/><use xlink:href="#5" y="2.171"/><use xlink:href="#6" y="4.342"/><use xlink:href="#7" y="6.513"/><use xlink:href="#8" y="8.684"/><text y="12.525" class="c">xbx@node</text><text x="8.016" y="12.525" class="d">:</text><text x="9.018" y="12.525" class="e">~/github</text><text x="17.034" y="12.525" class="d">$</text><text x="19.038" y="12.525" class="d">exi</text></svg><svg x="4800"><use xlink:href="#a"/><use xlink:href="#b" x="22.996" y="10.83"/><use xlink:href="#2"/><use xlink:href="#5" y="2.171"/><use xlink:href="#6" y="4.342"/><use xlink:href="#7" y="6.513"/><use xlink:href="#8" y="8.684"/><use xlink:href="#9" y="10.855"/></svg><svg x="4920"><use xlink:href="#a"/><use xlink:href="#b" x="-.004" y="13.001"/><use xlink:href="#2"/><use xlink:href="#5" y="2.171"/><use xlink:href="#6" y="4.342"/><use xlink:href="#7" y="6.513"/><use xlink:href="#8" y="8.684"/><use xlink:href="#9" y="10.855"/></svg><svg x="5040"><use xlink:href="#a"/><use xlink:href="#b" x="-.004" y="15.172"/><use xlink:href="#2"/><use xlink:href="#5" y="2.171"/><use xlink:href="#6" y="4.342"/><use xlink:href="#7" y="6.513"/><use xlink:href="#8" y="8.684"/><use xlink:href="#9" y="10.855"/><text y="14.696" class="d">exit</text></svg></svg></g></g></svg></svg>